Coordinates
version=1
nRows=26
nColumns=22
inDegrees=yes

Units are S.I. units (second, meters, Newtons, ...)
If the header above contains a line with 'inDegrees', this indicates whether rotational values are in degrees (yes) or radians (no).

endheader
time	pelvis_tilt	pelvis_list	pelvis_rotation	pelvis_tx	pelvis_ty	pelvis_tz	hip_flexion_r	hip_adduction_r	hip_rotation_r	knee_angle_r	ankle_angle_r	subtalar_angle_r	hip_flexion_l	hip_adduction_l	hip_rotation_l	knee_angle_l	ankle_angle_l	subtalar_angle_l	lumbar_extension	lumbar_bending	lumbar_rotation
      0.01000000	     -3.17150840	     -6.45168832	      8.42686977	     -1.04704077	      0.97744053	      0.11996516	      6.33066454	      6.18059068	    -11.43927073	    -15.80694710	     10.84217782	      0.50159368	      5.02014349	     -5.33215580	     13.77472742	     -8.70829889	     10.53008310	     -1.37435090	      2.18591526	      6.06842274	     -7.10551258
      0.02000000	     -3.14494501	     -6.42860291	      8.40934733	     -1.04664205	      0.97747244	      0.11999764	      6.25770792	      6.16826558	    -11.42121032	    -15.78064217	     10.87054146	      0.56726330	      4.90270629	     -5.33088589	     13.75603065	     -8.60786533	     10.51000806	     -1.38159188	      2.20134834	      6.03615015	     -7.06793934
      0.03000000	     -3.14513321	     -6.43687832	      8.38951862	     -1.04622114	      0.97745219	      0.12005943	      6.22388173	      6.18788063	    -11.39460080	    -15.76617724	     10.88266493	      0.58234702	      4.81907384	     -5.36120710	     13.74305888	     -8.51069041	     10.52216511	     -1.38569420	      2.25567234	      6.03245227	     -7.04143760
      0.04000000	     -3.13112299	     -6.43281316	      8.35949689	     -1.04573769	      0.97745382	      0.12013446	      6.16545671	      6.19929311	    -11.35561946	    -15.74392775	     10.89632966	      0.59737124	      4.70548101	     -5.38379022	     13.70624552	     -8.39947065	     10.51951669	     -1.39308052	      2.29826816	      6.01542363	     -7.01235995
      0.05000000	     -3.14057370	     -6.42975503	      8.35306439	     -1.04526682	      0.97740904	      0.12017937	      6.14097227	      6.20223143	    -11.35766987	    -15.73551588	     10.90633029	      0.59942085	      4.64906530	     -5.39523636	     13.66742397	     -8.33869183	     10.54291812	     -1.39839224	      2.36970998	      5.99401308	     -7.03255768
      0.06000000	     -3.11965425	     -6.41922235	      8.31072598	     -1.04474870	      0.97741089	      0.12028308	      6.08539455	      6.20973604	    -11.29564504	    -15.73736710	     10.93747582	      0.60573648	      4.51522690	     -5.41526327	     13.63937900	     -8.21493736	     10.53241728	     -1.41065991	      2.40486728	      5.96683109	     -7.00143588
      0.07000000	     -3.12416542	     -6.41481497	      8.29726213	     -1.04426207	      0.97736706	      0.12032879	      6.06475500	      6.21125219	    -11.28881154	    -15.74638568	     10.94462106	      0.60581872	      4.45802077	     -5.42370585	     13.60020728	     -8.16697892	     10.55757437	     -1.41775132	      2.47210660	      5.94476001	     -7.04831240
      0.08000000	     -3.10185561	     -6.39931043	      8.25916897	     -1.04373710	      0.97736102	      0.12041616	      6.01153669	      6.21197844	    -11.23140019	    -15.75714162	     10.99268248	      0.59849462	      4.33740921	     -5.43321429	     13.57348669	     -8.07079858	     10.56246822	     -1.44017548	      2.50755683	      5.91093267	     -7.04859095
      0.09000000	     -3.09791357	     -6.39519056	      8.24354812	     -1.04325539	      0.97732622	      0.12046803	      5.98780796	      6.21623055	    -11.21399094	    -15.77611593	     10.99786003	      0.59539934	      4.28242241	     -5.44026612	     13.53929486	     -8.04243700	     10.58534817	     -1.45059108	      2.56469541	      5.88691189	     -7.10811334
      0.10000000	     -3.09270162	     -6.39149233	      8.21792326	     -1.04277856	      0.97729260	      0.12053074	      5.96089932	      6.22227339	    -11.18555576	    -15.79151752	     11.01877727	      0.58829556	      4.22623697	     -5.44798065	     13.51623864	     -8.01764544	     10.61199518	     -1.46233139	      2.61961152	      5.86240294	     -7.16610849
      0.11000000	     -3.08438070	     -6.38717896	      8.18480163	     -1.04231525	      0.97726292	      0.12059652	      5.92782264	      6.22942602	    -11.14733300	    -15.80188911	     11.04340114	      0.57872535	      4.17360956	     -5.45325857	     13.49513552	     -8.00638239	     10.64136796	     -1.47669081	      2.66900903	      5.83847427	     -7.22445609
      0.12000000	     -3.07394527	     -6.38270032	      8.14320022	     -1.04186919	      0.97723770	      0.12066797	      5.88819280	      6.23837785	    -11.09703199	    -15.80337313	     11.06813041	      0.56693295	      4.12662462	     -5.45610783	     13.46987819	     -8.01113483	     10.67499582	     -1.49517312	      2.71305776	      5.81441343	     -7.27921627
      0.13000000	     -3.04780194	     -6.37769025	      8.06618736	     -1.04143833	      0.97723554	      0.12078098	      5.81939268	      6.25675653	    -10.99356543	    -15.78187762	     11.09386559	      0.53471551	      4.07114794	     -5.46016356	     13.40402061	     -8.04046143	     10.71903166	     -1.54652001	      2.73256175	      5.79408661	     -7.28031562
      0.14000000	     -3.05030834	     -6.37529596	      8.01014571	     -1.04103771	      0.97720091	      0.12085366	      5.79423299	      6.26315670	    -10.94994415	    -15.78047674	     11.09857403	      0.52731061	      4.04218200	     -5.46147858	     13.37111412	     -8.04962842	     10.74505811	     -1.56067793	      2.78558779	      5.77262938	     -7.33814710
      0.15000000	     -3.06233410	     -6.37496526	      7.90647422	     -1.04067017	      0.97715923	      0.12099944	      5.76697891	      6.28281395	    -10.81918701	    -15.75421163	     11.11316370	      0.50437676	      4.04065911	     -5.46286236	     13.27890704	     -8.10193518	     10.79052596	     -1.59988523	      2.83860036	      5.75259558	     -7.31951320
      0.16000000	     -3.08871762	     -6.37431633	      7.80201024	     -1.04029264	      0.97710521	      0.12114352	      5.75776600	      6.29663717	    -10.71230522	    -15.73452002	     11.11946536	      0.48574153	      4.04110984	     -5.46454362	     13.18545963	     -8.12950086	     10.82505335	     -1.62892602	      2.91073862	      5.73020098	     -7.31514655
      0.17000000	     -3.12297913	     -6.37703773	      7.68973407	     -1.03991743	      0.97704447	      0.12130855	      5.75691086	      6.31349758	    -10.60606041	    -15.71355968	     11.12359430	      0.47004819	      4.04961244	     -5.47041501	     13.08456846	     -8.15760485	     10.86084906	     -1.65337322	      2.99078904	      5.70880444	     -7.30136032
      0.18000000	     -3.16131764	     -6.38367722	      7.57401590	     -1.03953243	      0.97698180	      0.12149438	      5.75673664	      6.33551064	    -10.50430023	    -15.68591188	     11.12498716	      0.45897016	      4.05990913	     -5.48215031	     12.98072715	     -8.18169378	     10.89643852	     -1.67347206	      3.07692736	      5.68729857	     -7.28555644
      0.19000000	     -3.20068968	     -6.39555420	      7.45517282	     -1.03912487	      0.97692097	      0.12168220	      5.75546453	      6.36240173	    -10.40542384	    -15.65586292	     11.12153258	      0.45178745	      4.06768028	     -5.50042383	     12.86872230	     -8.20150443	     10.93381485	     -1.69228507	      3.16944814	      5.67346824	     -7.26370304
      0.20000000	     -3.23582797	     -6.41327652	      7.33373294	     -1.03870378	      0.97686701	      0.12188206	      5.74847893	      6.39642215	    -10.31320926	    -15.62212290	     11.11393707	      0.44869273	      4.06873117	     -5.52720919	     12.75722693	     -8.21938613	     10.97180479	     -1.71053722	      3.26111375	      5.66444858	     -7.24118756
      0.21000000	     -3.26454897	     -6.43702320	      7.21184953	     -1.03826125	      0.97682275	      0.12209762	      5.73067577	      6.43887711	    -10.22557972	    -15.58202719	     11.10291382	      0.44892778	      4.05947633	     -5.56363922	     12.64391693	     -8.23167637	     11.01239477	     -1.72946182	      3.34964590	      5.66087840	     -7.21982433
      0.22000000	     -3.28307436	     -6.46654262	      7.08858250	     -1.03779080	      0.97679030	      0.12231586	      5.69814605	      6.48948215	    -10.14140083	    -15.53610518	     11.08890574	      0.45065942	      4.03422601	     -5.60842244	     12.52952392	     -8.23792722	     11.05490571	     -1.74930786	      3.43238099	      5.66396472	     -7.19776615
      0.23000000	     -3.28921893	     -6.50101790	      6.96212805	     -1.03727978	      0.97677539	      0.12255011	      5.64553983	      6.54934723	    -10.05485135	    -15.48088596	     11.07240579	      0.45216104	      3.98913975	     -5.66247056	     12.41105406	     -8.23722894	     11.10008334	     -1.77035481	      3.50655435	      5.67356828	     -7.17338248
      0.24000000	     -3.28051104	     -6.54069741	      6.83102991	     -1.03672910	      0.97678018	      0.12280217	      5.56952179	      6.61894552	     -9.96084214	    -15.41487539	     11.05364392	      0.45208373	      3.92146772	     -5.72707085	     12.28753490	     -8.23024019	     11.14763982	     -1.79210877	      3.56690439	      5.68882725	     -7.14492546
      0.25000000	     -3.25765009	     -6.58017340	      6.70039340	     -1.03612720	      0.97680164	      0.12304083	      5.46906022	      6.69022279	     -9.86675574	    -15.33954933	     11.03497415	      0.44902008	      3.83000679	     -5.79278045	     12.16090480	     -8.21402512	     11.19663513	     -1.81312153	      3.61726956	      5.70827720	     -7.11575485
      0.26000000	     -3.22268073	     -6.61971218	      6.56670821	     -1.03550655	      0.97684052	      0.12328960	      5.35182992	      6.76485652	     -9.76524926	    -15.25825371	     11.01633519	      0.44277487	      3.72256131	     -5.86084882	     12.03221588	     -8.19742585	     11.24605553	     -1.83291546	      3.65295716	      5.72753831	     -7.08359139
